<svg width="18" height="16" viewBox="0 0 18 16" fill="none" xmlns="http://www.w3.org/2000/svg">
<g id="Frame 1042">
<path id="Vector" d="M8.61579 2.22688C10.3023 0.712724 12.9084 0.76298 14.5331 2.39058C16.1572 4.01889 16.2132 6.61214 14.7026 8.30363L8.61435 14.4005L2.52756 8.30363C1.01699 6.61214 1.0737 4.01459 2.69699 2.39058C4.32315 0.765134 6.92429 0.71057 8.61579 2.22688ZM13.5165 3.40504C12.4396 2.32668 10.7022 2.28289 9.57497 3.2952L8.61651 4.1553L7.65732 3.29592C6.52655 2.28217 4.79269 2.32668 3.7129 3.40648C2.64315 4.47623 2.5893 6.18854 3.57505 7.32004L8.61507 12.368L13.6551 7.32075C14.6416 6.18854 14.5877 4.47838 13.5165 3.40504Z" fill="#7D7D7D"/>
</g>
</svg>
