<svg width="18" height="16" viewBox="0 0 18 16" fill="none" xmlns="http://www.w3.org/2000/svg">
<g id="Frame 1042">
<g id="Vector">
<path d="M8.61579 2.22684C10.3023 0.712678 12.9084 0.762935 14.5332 2.39053C16.1572 4.01885 16.2132 6.61209 14.7026 8.30358L8.61435 14.4004L2.52756 8.30358C1.01699 6.61209 1.0737 4.01454 2.69699 2.39053C4.32315 0.765089 6.92429 0.710524 8.61579 2.22684ZM13.5165 3.405C12.4396 2.32663 10.7022 2.28284 9.57497 3.29515L8.61651 4.15526L7.65732 3.29587C6.52655 2.28212 4.7927 2.32663 3.7129 3.40643C2.64315 4.47618 2.5893 6.1885 3.57505 7.31999L8.61507 12.3679L13.6551 7.32071C14.6416 6.1885 14.5877 4.47834 13.5165 3.405Z" fill="#D63D46"/>
<path d="M13.5165 3.405C12.4396 2.32663 10.7022 2.28284 9.57497 3.29515L8.61651 4.15526L7.65732 3.29587C6.52655 2.28212 4.7927 2.32663 3.7129 3.40643C2.64315 4.47618 2.5893 6.1885 3.57505 7.31999L8.61507 12.3679L13.6551 7.32071C14.6416 6.1885 14.5877 4.47834 13.5165 3.405Z" fill="#D63D46"/>
</g>
</g>
</svg>
