<?xml version="1.0" standalone="no"?>
<!DOCTYPE svg PUBLIC "-//W3C//DTD SVG 20010904//EN"
 "http://www.w3.org/TR/2001/REC-SVG-20010904/DTD/svg10.dtd">
<svg version="1.0" xmlns="http://www.w3.org/2000/svg"
 width="657.000000pt" height="552.000000pt" viewBox="0 0 657.000000 552.000000"
 preserveAspectRatio="xMidYMid meet">

<g transform="translate(0.000000,552.000000) scale(0.100000,-0.100000)"
fill="#000000" stroke="none">
<path d="M0 2760 l0 -2760 3285 0 3285 0 0 2760 0 2760 -3285 0 -3285 0 0
-2760z m867 525 c226 -71 373 -272 373 -510 0 -485 -587 -718 -925 -367 -56
57 -121 186 -136 267 -15 80 -6 206 20 280 95 270 393 417 668 330z m1173 -70
l0 -35 -170 0 -170 0 0 -105 0 -105 135 0 135 0 0 -30 0 -30 -135 0 -135 0 0
-140 0 -140 -35 0 -35 0 0 310 0 310 205 0 205 0 0 -35z m172 -192 c3 -216 4
-230 25 -264 32 -50 86 -73 163 -67 64 5 97 22 134 72 20 25 21 43 24 257 l3
229 35 0 34 0 0 -208 c0 -244 -10 -294 -69 -353 -89 -89 -275 -88 -357 3 -56
61 -59 76 -62 326 l-3 232 35 0 35 0 3 -227z m865 199 c75 -39 111 -111 99
-196 -9 -56 -52 -110 -101 -126 -19 -6 -35 -13 -35 -15 0 -2 33 -59 74 -127
l75 -123 -31 -3 c-16 -2 -35 -1 -42 1 -7 3 -43 60 -82 127 l-69 122 -44 -6
c-24 -3 -54 -6 -67 -6 -24 0 -24 -1 -24 -120 l0 -120 -35 0 -35 0 0 311 0 311
138 -4 c116 -3 143 -7 179 -26z m468 -221 l180 -248 3 248 2 249 35 0 35 0 0
-310 0 -310 -34 0 c-34 0 -39 6 -213 250 -98 137 -181 249 -185 250 -5 0 -8
-112 -8 -250 l0 -250 -30 0 -30 0 0 310 0 310 33 0 c31 0 40 -11 212 -249z
m465 -61 l0 -310 -35 0 -35 0 0 310 0 310 35 0 35 0 0 -310z m600 275 l0 -35
-110 0 -110 0 0 -275 0 -275 -30 0 -30 0 0 274 0 273 -110 8 -110 7 0 29 0 29
250 0 250 0 0 -35z m162 -182 c3 -196 5 -222 24 -257 34 -66 63 -81 154 -81
88 0 119 15 155 76 18 31 20 55 23 257 l3 222 35 0 34 0 0 -189 c0 -103 -5
-213 -10 -242 -25 -129 -105 -194 -240 -194 -101 0 -162 30 -205 100 l-30 48
-3 239 -3 238 29 0 30 0 4 -217z m838 201 c72 -21 114 -64 128 -130 19 -90 -9
-159 -81 -195 -23 -12 -44 -23 -46 -25 -1 -1 27 -52 63 -112 88 -146 87 -142
40 -142 l-39 0 -69 120 c-38 66 -72 123 -76 125 -4 3 -35 2 -69 -1 l-61 -7 0
-118 0 -119 -35 0 -35 0 0 310 0 310 113 0 c75 0 132 -5 167 -16z m668 -16
l-3 -33 -172 -3 -173 -2 0 -95 0 -95 135 0 135 0 0 -35 0 -35 -135 0 -135 0 0
-110 0 -110 175 0 175 0 0 -35 0 -35 -210 0 -210 0 0 310 0 310 211 0 210 0
-3 -32z m-4518 -751 c0 -8 -13 -11 -43 -9 -30 3 -47 -1 -56 -12 -19 -23 3 -46
45 -46 25 0 38 -7 50 -25 15 -23 15 -27 0 -51 -15 -22 -23 -25 -68 -22 -69 4
-74 24 -6 23 50 0 53 1 53 25 0 22 -5 25 -40 28 -22 2 -45 8 -52 14 -16 13
-17 60 -1 76 16 16 118 16 118 -1z m490 3 c0 -5 -13 -10 -30 -10 l-30 0 0 -80
c0 -47 -4 -80 -10 -80 -6 0 -10 33 -10 80 l0 80 -30 0 c-16 0 -30 5 -30 10 0
6 30 10 70 10 40 0 70 -4 70 -10z m539 -16 c51 -65 11 -154 -69 -154 -80 0
-120 89 -69 154 17 22 28 26 69 26 41 0 52 -4 69 -26z m555 10 c22 -21 20 -31
-9 -60 l-25 -25 25 -33 c29 -38 31 -46 11 -46 -13 0 -66 70 -66 87 0 5 10 13
23 18 12 6 22 19 22 30 0 16 -8 21 -37 23 l-38 3 0 -80 c0 -47 -4 -81 -10 -81
-6 0 -10 37 -10 90 l0 90 49 0 c32 0 55 -6 65 -16z m496 6 c0 -5 -22 -10 -50
-10 -49 0 -50 -1 -50 -30 0 -29 2 -30 45 -30 25 0 45 -4 45 -10 0 -5 -20 -10
-45 -10 -43 0 -45 -1 -45 -30 0 -29 1 -30 50 -30 28 0 50 -4 50 -10 0 -6 -27
-10 -60 -10 l-60 0 0 90 0 90 60 0 c33 0 60 -4 60 -10z"/>
<path d="M839 3203 c100 -125 75 -278 -66 -407 -118 -107 -158 -150 -176 -189
-42 -87 -34 -154 23 -220 95 -108 265 -93 405 35 210 192 210 514 -1 708 -42
39 -173 110 -202 110 -8 0 -1 -15 17 -37z"/>
<path d="M501 3205 c-299 -140 -365 -555 -122 -777 79 -73 261 -157 204 -95
-45 49 -67 109 -68 182 0 100 31 151 167 277 130 121 163 177 156 263 -6 68
-44 126 -102 155 -62 30 -164 28 -235 -5z"/>
<path d="M2830 3061 l0 -131 78 0 c94 0 141 12 171 44 30 31 37 91 18 138 -22
53 -63 71 -174 76 l-93 4 0 -131z"/>
<path d="M5400 3059 l0 -131 98 4 c113 4 145 18 169 75 19 47 10 95 -25 134
-32 35 -79 48 -174 49 l-68 0 0 -131z"/>
<path d="M2676 2447 c-21 -16 -25 -89 -5 -113 15 -19 74 -18 93 2 9 9 16 32
16 54 0 22 -7 45 -16 54 -19 19 -64 21 -88 3z"/>
</g>
</svg>
