<svg width="24" height="24" viewBox="0 0 24 24" fill="none" xmlns="http://www.w3.org/2000/svg">
<g id="&#208;&#154;&#208;&#190;&#209;&#128;&#208;&#183;&#208;&#184;&#208;&#189;&#208;&#176;">
<path id="Vector" d="M19 21.75H5C4.20435 21.75 3.44129 21.4339 2.87868 20.8713C2.31607 20.3087 2 19.5456 2 18.75V9.75C2 8.95435 2.31607 8.19129 2.87868 7.62868C3.44129 7.06607 4.20435 6.75 5 6.75H19C19.7956 6.75 20.5587 7.06607 21.1213 7.62868C21.6839 8.19129 22 8.95435 22 9.75V18.75C22 19.5456 21.6839 20.3087 21.1213 20.8713C20.5587 21.4339 19.7956 21.75 19 21.75ZM5 8.25C4.60218 8.25 4.22064 8.40804 3.93934 8.68934C3.65804 8.97064 3.5 9.35218 3.5 9.75V18.75C3.5 19.1478 3.65804 19.5294 3.93934 19.8107C4.22064 20.092 4.60218 20.25 5 20.25H19C19.3978 20.25 19.7794 20.092 20.0607 19.8107C20.342 19.5294 20.5 19.1478 20.5 18.75V9.75C20.5 9.35218 20.342 8.97064 20.0607 8.68934C19.7794 8.40804 19.3978 8.25 19 8.25H5Z" fill="#232323"/>
<path id="Vector_2" d="M7.25 10.75C7.25 10.9489 7.32902 11.1397 7.46967 11.2803C7.61032 11.421 7.80109 11.5 8 11.5C8.19891 11.5 8.38968 11.421 8.53033 11.2803C8.67098 11.1397 8.75 10.9489 8.75 10.75H7.25ZM15.25 10.75C15.25 10.9489 15.329 11.1397 15.4697 11.2803C15.6103 11.421 15.8011 11.5 16 11.5C16.1989 11.5 16.3897 11.421 16.5303 11.2803C16.671 11.1397 16.75 10.9489 16.75 10.75H15.25ZM8.75 10.75V6.75H7.25V10.75H8.75ZM15.25 6.75V10.75H16.75V6.75H15.25ZM12 3.5C12.8611 3.50264 13.6863 3.84589 14.2952 4.45482C14.9041 5.06374 15.2474 5.88886 15.25 6.75H16.75C16.75 5.49022 16.2496 4.28204 15.3588 3.39124C14.468 2.50044 13.2598 2 12 2V3.5ZM12 2C10.7402 2 9.53204 2.50044 8.64124 3.39124C7.75045 4.28204 7.25 5.49022 7.25 6.75H8.75C8.75264 5.88886 9.09589 5.06374 9.70482 4.45482C10.3137 3.84589 11.1389 3.50264 12 3.5V2Z" fill="#232323"/>
</g>
</svg>
