<svg width="22" height="20" viewBox="0 0 22 20" fill="none" xmlns="http://www.w3.org/2000/svg">
<g id="Frame">
<path id="Vector" d="M16.253 13.8449L19.9782 17.4132L18.7475 18.5924L15.0231 15.0232C13.6373 16.0876 11.9136 16.6665 10.1376 16.6641C5.81651 16.6641 2.30957 13.3041 2.30957 9.16406C2.30957 5.02406 5.81651 1.66406 10.1376 1.66406C14.4586 1.66406 17.9655 5.02406 17.9655 9.16406C17.9681 10.8657 17.3639 12.5172 16.253 13.8449ZM14.5082 13.2266C15.612 12.139 16.2285 10.6811 16.226 9.16406C16.226 5.94073 13.501 3.33073 10.1376 3.33073C6.77326 3.33073 4.04912 5.94073 4.04912 9.16406C4.04912 12.3866 6.77326 14.9974 10.1376 14.9974C11.7209 14.9998 13.2426 14.4092 14.3777 13.3516L14.5082 13.2266Z" fill="#7D7D7D"/>
</g>
</svg>
