<svg width="24" height="22" viewBox="0 0 24 22" fill="none" xmlns="http://www.w3.org/2000/svg">
<g id="la:shopping-bag">
<path id="Vector" d="M12.0456 2.0625C10.0642 2.0625 8.43773 3.61212 8.43773 5.5V6.1875H2.30469V6.875L4.10828 19.2074L4.06282 19.9375H20.0277L19.9829 19.2067L21.7872 6.875V6.1875H15.6535V5.5C15.6535 3.61212 14.027 2.0625 12.0456 2.0625ZM12.0456 3.4375C12.6197 3.4375 13.1703 3.6548 13.5763 4.04159C13.9823 4.42839 14.2103 4.95299 14.2103 5.5V6.1875H9.88087V5.5C9.88087 4.95299 10.1089 4.42839 10.5149 4.04159C10.9209 3.6548 11.4715 3.4375 12.0456 3.4375ZM4.10828 7.5625H8.43773V9.625H9.88087V7.5625H14.2103V9.625H15.6535V7.5625H20.0277L18.495 18.5625H5.59689L4.10828 7.5625Z" fill="white"/>
</g>
</svg>
